<!-- by TradingView --><svg width="18" height="18" viewBox="0 0 18 18" xmlns="http://www.w3.org/2000/svg"><path fill="#F0F3FA" d="M0 0h18v18H0z"/><ellipse cx="9.01" cy="9" rx="5.99" ry="6"/><path d="m9.22 3.01.01.1v.46c-.2-.01-.41-.04-.61-.08a.72.72 0 0 0-.4 0c-.13.05-.24.08-.36.1a.2.2 0 0 1-.08 0h-.03c-.01.03-.04.04-.07.04l.05-.1.02-.02.16-.12c.02-.02.01-.03-.02-.03l-.19.01c-.09 0-.1-.1-.1-.16l-.02-.02H7.5c.52-.15 1.1-.2 1.7-.18Z" fill="#3A386C"/><path d="M9.22 3.01c.27 0 .53.03.8.08l-.2.01-.59.01a.3.3 0 0 1-.01-.1Z" fill="#BE3238"/><path d="M9.83 3.1h.22c.89.15 1.7.5 2.45 1.02h-1.93c-.2-.17-.44-.3-.7-.38a5.75 5.75 0 0 0-.64-.17v-.46h.6ZM7.51 3.19h.07l.01.02c.02.06.02.17.11.16h.2c.02 0 .03 0 0 .02l-.15.12-.02.02-.05.1-.32.1c-.02-.04 0-.09.03-.14a.04.04 0 0 0-.01-.06 5.43 5.43 0 0 1-.2-.16.02.02 0 0 1 .02 0h.21a.05.05 0 0 0 .06-.04l.03-.14c0 .02 0 .02.01 0Z" fill="#fff"/><path d="m7.5 3.19-.03.14a.05.05 0 0 1-.05.04H7.2a.02.02 0 0 0-.01 0 .02.02 0 0 0 0 .01v.03a5.44 5.44 0 0 0 .2.16v.02c-.04.05-.05.1-.03.14l-.61.26c0-.05-.02-.15-.07-.17a.02.02 0 0 0-.02 0v.01l-.06.18c-.03.09-.2.06-.28.06a.01.01 0 0 0 0 .03l.1.1c-.2.19-.36.4-.5.62a.65.65 0 0 0-.04-.2c-.02-.06-.05-.06-.08 0a.63.63 0 0 0-.03.16.07.07 0 0 1-.07.06l-.2-.02c-.05 0-.05.02-.01.05l.16.1a.07.07 0 0 1 .03.1 1.2 1.2 0 0 0-.08.19c-.02.04 0 .04.03.02l.18-.14-.01.2a8.57 8.57 0 0 0-.13.97.03.03 0 0 0-.03-.02h-.16a.01.01 0 0 0-.01 0 .01.01 0 0 0 0 .02l.2.15c-.02.03-.03.06-.02.1l.02.05c-.03.02-.05.05-.06.1v.03h.02l.02-.02a.4.4 0 0 0 .03.25c.02.03.02.07 0 .13-.03.16-.08.3-.13.43-.05.1-.04.21-.05.32-.03.2.04.4.1.6l.04.28c.02.2.06.4.12.6h-.18a321.3 321.3 0 0 0-2.56.03A2.3 2.3 0 0 1 3 9c0-.07.04-.12.03-.19-.02-.07 0-.14-.01-.22v-.08a6.02 6.02 0 0 1 .23-1.25l.26.18c.04.03.05.02.03-.02a1.7 1.7 0 0 1-.09-.2c-.01-.03 0-.06.03-.08A8.4 8.4 0 0 0 3.66 7v-.01h-.04a.54.54 0 0 1-.26.02c-.02 0-.03 0-.03.02a5.31 5.31 0 0 1 .97-1.75c.03.04.06.04.08-.03.02-.03.02-.06 0-.06.2-.28.44-.52.71-.74.03.04.07.07.12.08l.01-.02a.67.67 0 0 0-.02-.08c-.02-.03-.03-.05-.05-.03A5.89 5.89 0 0 1 7.5 3.19Z" fill="#3A386C"/><path d="M10.82 4.6a.29.29 0 0 1-.07-.04l-.03-.02h-.13l-.05-.02a7.3 7.3 0 0 0-.28-.11c-.1-.04-.11-.02-.06.06.06.08.1.17.13.28v.11h-.02c-.02-.09-.03-.18-.08-.26l-.1-.17a.46.46 0 0 0-.19-.15h-.03a.32.32 0 0 1-.13 0h-.2a8.99 8.99 0 0 0-1.13-.05 8.47 8.47 0 0 0-1.37.2l-.11.01h-.03a.73.73 0 0 0-.13.11.67.67 0 0 0-.11.2.58.58 0 0 0-.05.2c0 .2 0 .37.04.54l.03.34v.02H6.7v-.02a27.2 27.2 0 0 1-.08-.9c0-.1.04-.2.08-.28.05-.1.03-.12-.07-.06a1.74 1.74 0 0 1-.28.13.01.01 0 0 1 0-.02l.04-.09.01-.01c.03-.02.04-.05.06-.08l.14-.15.1-.06.12-.09.02-.01c.03-.02.04-.05.05-.1a.01.01 0 0 0-.02 0h-.04l.28-.14c.32-.13.63-.23.93-.28.19-.03.34-.14.55-.08.05.02.1.04.14.04.44.04.94.14 1.34.33.27.11.59.38.75.63Z" fill="#8B221F"/><path d="m6.75 3.99-.33.21-.1-.1a.01.01 0 0 1 0-.03c.07 0 .25.03.28-.06a2.53 2.53 0 0 0 .07-.2h.01c.05.03.07.13.07.18Z" fill="#fff"/><path d="m10.82 4.6.11.22c.11.36.2.75.26 1.17l-.02.06-.02.01a.32.32 0 0 1-.12.01 9.21 9.21 0 0 0-.41-.09l-.12-.02a1.56 1.56 0 0 0-.1-.03c-.02 0-.03 0-.03-.02l-.05-.07a.03.03 0 0 0-.03-.01c-.1 0-.2 0-.3-.04a2.55 2.55 0 0 0-1.16-.17 8.9 8.9 0 0 0-1.1.1 5.2 5.2 0 0 0-.94.3C6.8 6 6.77 6 6.76 6a.15.15 0 0 0-.07.1.03.03 0 0 0 .03.03 1 1 0 0 1 .14-.02l.13-.03a10.96 10.96 0 0 1 .7-.2h.13a9.89 9.89 0 0 1 1.52-.06c.2 0 .38.04.57.08.11.03.2.06.26.1.04.03.19.17.18.25l-.04.46-.05.4c-.01.06-.04.1-.09.15v.03l-.04.1-.03.02-.23-.04a4.71 4.71 0 0 0-2.15 0 2.78 2.78 0 0 0-1 .43H6.7v-.03l-.01-.02-.02-.01c0-.05 0-.1.03-.15a.31.31 0 0 1 .04-.04.02.02 0 0 0 0-.04h-.02V7.5a.05.05 0 0 0-.03-.02c-.06 0-.1-.06-.11-.1a8.3 8.3 0 0 1-.15-.79l.01-.1a11.24 11.24 0 0 1 .1-.23v-.08a.03.03 0 0 0-.02-.02h-.01l-.17.07a.23.23 0 0 1-.1.03l-.11.01a.58.58 0 0 1-.27.03c.02-.34.06-.68.11-1.04.02-.15.05-.26.09-.35a1.9 1.9 0 0 1 .77-.8h.04a.01.01 0 0 1 .02 0c0 .05-.02.08-.05.1l-.02.01c-.04.04-.08.05-.13.09l-.09.06-.14.15c-.02.03-.03.06-.06.08l-.01.01-.04.1a.01.01 0 0 0 .02 0c.09-.03.18-.07.26-.12.1-.06.12-.04.07.06a.75.75 0 0 0-.08.28v.33a27.2 27.2 0 0 0 .08.59h.01l.01-.02c0-.11 0-.22-.03-.34a2.26 2.26 0 0 1-.04-.55c0-.06.02-.13.05-.2a.67.67 0 0 1 .11-.19.73.73 0 0 1 .13-.1l.03-.01h.11a10.4 10.4 0 0 1 .43-.1c.43-.08.75-.11.93-.12a8.99 8.99 0 0 1 1.13.05c.07.01.14 0 .21.02l.13-.01h.03c.1.05.16.1.19.15l.1.17c.05.08.06.17.08.26h.02v-.11c-.03-.1-.07-.2-.13-.28-.05-.08-.03-.1.06-.07a7.18 7.18 0 0 1 .33.14 2.6 2.6 0 0 0 .16.02l.07.05Z" fill="#B02D33"/><path d="m10.57 4.11 1.93.01a7.05 7.05 0 0 1 1.13 1.07l-2.43-.01-.1-.36a1.13 1.13 0 0 0-.3-.47 6.89 6.89 0 0 0-.23-.24Z" fill="#BE3238"/><path d="m5.92 4.82-.1.32-.2.14c-.03.02-.04.02-.02-.02.02-.07.04-.13.08-.2a.07.07 0 0 0-.03-.08 1.48 1.48 0 0 1-.16-.11c-.04-.03-.04-.05.01-.05l.2.02a.07.07 0 0 0 .07-.06c0-.06.02-.1.03-.15.03-.07.06-.07.08 0 .02.05.04.11.04.19ZM11.2 5.18h2.43c.25.32.48.66.67 1l-.07.01H11.4c-.05-.34-.11-.68-.2-1.01ZM5.1 5.55l.25-.01a.02.02 0 0 1 .01.03l-.22.15a.02.02 0 0 0 0 .02l.09.24A.02.02 0 0 1 5.2 6L5 5.84a.02.02 0 0 0-.02 0l-.2.16a.02.02 0 0 1-.04-.02l.1-.24a.02.02 0 0 0-.01-.02l-.22-.15a.02.02 0 0 1 .01-.03l.26.01a.02.02 0 0 0 .02-.01l.07-.25a.02.02 0 0 1 .03 0l.07.25a.02.02 0 0 0 .02.01Z" fill="#fff"/><path d="m11.2 6 .07.37c.02.13.03.25.02.36l-.05.6c-.03.47-.47.47-.8.3a4.1 4.1 0 0 0-.57-.25l.23.04c.01 0 .02 0 .03-.02a.26.26 0 0 0 .03-.1l.01-.03c.05-.04.08-.1.09-.15l.05-.4.04-.46c0-.08-.14-.22-.18-.25a.74.74 0 0 0-.26-.1c-.2-.04-.38-.07-.57-.08a9.88 9.88 0 0 0-1.77.08 10.97 10.97 0 0 0-.71.2.99.99 0 0 0-.15.03.03.03 0 0 1-.02-.03c0-.04.03-.08.07-.1h.03l.04.01h.03c.04-.05.1-.07.15-.08l.04-.02a.18.18 0 0 1 .1-.05c.03 0 .06 0 .08-.02a8.9 8.9 0 0 1 1.6-.22c.15 0 .3 0 .45.03a746.14 746.14 0 0 1 1.04.18l.05.07.02.02c.04 0 .08.02.11.03l.12.02c.03 0 .05.02.08.03l.08.02.25.04h.12l.02-.02.02-.06Z" fill="#8B221F"/><path d="m4.23 6.3.28-.01a.01.01 0 0 1 0 .02l-.22.16a.01.01 0 0 0 0 .01l.09.26a.01.01 0 0 1-.02.01l-.22-.17a.01.01 0 0 0-.01 0l-.22.17a.01.01 0 0 1-.02-.01l.1-.26a.01.01 0 0 0 0-.02l-.24-.15a.01.01 0 0 1 0-.02h.01l.28.01.08-.27a.01.01 0 0 1 .03 0l.07.26a.01.01 0 0 0 .01.01Z" fill="#fff"/><path d="M6.72 7.81c-.2.13-.54.2-.7-.02a.93.93 0 0 1-.1-.37 5.85 5.85 0 0 0-.07-.4 1.47 1.47 0 0 1-.03-.36c0-.13.02-.25.04-.36.08.01.17 0 .27-.03a.34.34 0 0 1 .1-.01c.04 0 .08 0 .11-.03a1.44 1.44 0 0 1 .18-.07.03.03 0 0 1 .02.02v.14l-.1.18a.16.16 0 0 0-.01.1c.05.32.1.58.15.78 0 .04.05.1.1.1.02 0 .03 0 .04.02v.02h.02a.02.02 0 0 1 0 .04.31.31 0 0 0-.04.04c-.02.04-.02.1-.03.15l.02.01.01.02v.02l.02.01Z" fill="#8B221F"/><path d="M14.3 6.18a6.87 6.87 0 0 1 .43 1.08h-3.24c-.1-.27-.04-.52-.05-.8 0-.08-.03-.18-.04-.27a859.57 859.57 0 0 1 2.9-.01Z" fill="#BE3238"/><path d="m5.68 6.42-.01.04-.2-.15a.01.01 0 0 1 .01-.03l.16.01a.03.03 0 0 1 .03.02v.1ZM5.09 7.01h.27a.02.02 0 0 1 0 .02l-.22.15a.02.02 0 0 0 0 .02l.09.25a.02.02 0 0 1-.03.01L5 7.3a.02.02 0 0 0-.02 0l-.21.16a.02.02 0 0 1-.03-.01l.1-.25a.02.02 0 0 0 0-.02l-.23-.15a.02.02 0 0 1 0-.03l.27.01a.02.02 0 0 0 .02 0l.07-.26a.02.02 0 0 1 .03 0l.07.25a.02.02 0 0 0 .02.01ZM3.25 7.27l.08-.24c0-.02.01-.03.03-.02.1.01.18.01.26-.02h.03a.03.03 0 0 1 0 .04l-.17.12c-.03.02-.04.05-.03.09.03.06.05.13.09.19.02.04.01.05-.03.02l-.26-.18ZM14.73 7.26a9.1 9.1 0 0 1 .23 1h-3.24c0-.1-.01-.16-.03-.19a.8.8 0 0 1-.09-.23c-.02-.07-.07-.12-.08-.2 0-.12 0-.25-.03-.37h3.24Z" fill="#fff"/><path d="m6.94 9.13.08.04a.9.9 0 0 0 .28.01c.24-.05.44-.18.6-.36l.17-.22c.11-.21.2-.42.22-.65 0-.14-.17-.25-.28-.3a1.02 1.02 0 0 0-.42-.03c-.05 0-.05 0 0-.03a.26.26 0 0 1 .08-.03c.22-.03.44-.07.66-.08l.5-.02H9c.19-.01.39 0 .6.03.05 0 .1.02.13.04.02.01.02.02 0 .02-.23-.02-.43-.01-.6.03-.14.03-.32.14-.37.3v.1c.04.16.1.3.17.44.07.12.15.23.25.33a1 1 0 0 0 .26.2c.1.06.22.1.34.13.05.02.1.02.15 0a.54.54 0 0 1 .14-.02c.12-.01.3-.14.33-.26 0-.01 0-.02.02-.03a.09.09 0 0 0 .03-.05c.01-.08.05-.15.05-.23.02-.25.03-.46-.1-.68-.02-.02-.01-.03 0-.03l.05.01c.04.02.07.04.09.08.05.08.12.16.2.22.02 0 .02.02.03.03 0 .07.03.19-.04.23-.09.04-.12.12-.14.2-.11.47-.48.72-.96.6a1.4 1.4 0 0 1-.81-.75 2.82 2.82 0 0 1-.13-.3c-.02-.06-.1-.2-.2-.15a.22.22 0 0 0-.11.13l-.12.34c-.15.37-.52.81-.95.83-.23 0-.4 0-.58-.16a.98.98 0 0 1-.23-.38c-.03-.1-.08-.18-.17-.23a.05.05 0 0 1-.03-.04v-.17l.01-.03c.08-.07.16-.2.27-.2a.02.02 0 0 1 .02 0 .02.02 0 0 1 0 .02.85.85 0 0 0-.04.42l.04.2c.01.07.04.13.07.19.06.1.13.17.21.23a.3.3 0 0 0 .06.03Z" fill="#BE3238"/><path d="m4.24 7.76.27-.01a.02.02 0 0 1 0 .03l-.22.14a.02.02 0 0 0 0 .02l.1.25a.02.02 0 0 1-.04.02l-.2-.16a.02.02 0 0 0-.03 0l-.2.16a.02.02 0 0 1-.03-.02l.1-.25a.02.02 0 0 0-.01-.02l-.23-.14a.02.02 0 0 1 0-.02.02.02 0 0 1 .01-.01l.27.01a.02.02 0 0 0 .02-.01l.07-.26a.02.02 0 0 1 .03 0l.07.26a.02.02 0 0 0 .02.01Z" fill="#fff"/><path d="M8.37 7.56a65.67 65.67 0 0 0 .6-.01.02.02 0 0 1-.02.02c-.12.06-.25.14-.28.3a.02.02 0 0 1-.02 0 .33.33 0 0 0-.24 0h-.04c-.06-.14-.16-.2-.28-.27a.03.03 0 0 1-.01-.03v-.01c.01-.01.02-.02.03-.01l.26.01Z"/><path d="M11.3 7.77v.01l-.02.03-.18.23c-.04.05-.04.05.02.02a.53.53 0 0 0 .2-.25c.1.04.08.13 0 .19l-.14.13a.2.2 0 0 1-.12.05l-.01.02v.01l.04.01.04-.01.24-.17h.04c.06.06.1.12.09.2-.03.06-.13.06-.2.06l-.01-.02a.02.02 0 0 1 0-.02.17.17 0 0 0 .1-.12l-.01-.02h-.01l-.04.01a.45.45 0 0 1-.17.17.2.2 0 0 1-.13.02.04.04 0 0 0-.03 0c-.06.05-.09.13-.15.17a.52.52 0 0 1-.08.04l-.02.02-.01.03a1 1 0 0 1-.07.25c-.06.13-.2.24-.3.34a.35.35 0 0 1-.2.1.08.08 0 0 0-.06.1l.07.55c.03.27-.05.5-.22.7-.02.01-.04.05-.07.06-.03.01-.05 0-.03-.04l.05-.14c.02-.09 0-.1-.05-.01-.1.17-.2.34-.36.46-.06.05-.12.07-.17.07-.08 0-.12-.05-.1-.14.05-.2 0-.37-.14-.5 0-.02-.02-.02-.03-.02-.02 0-.03.02-.03.03v.02h.01l.02.03c.08.34 0 .65-.33.8a.53.53 0 0 1-.2.05l-.2.03-.14.01h-.03a.47.47 0 0 0-.12-.04h-.01v-.02a.28.28 0 0 0-.13-.04l-.13-.1a.01.01 0 0 0-.01-.01h-.01v.04c.08.13.2.22.37.27.22.06.45.1.68.06.04 0 .05.02.03.07 0 0 0 .02-.02.02-.08.06-.13.13-.2.2a.7.7 0 0 0-.2.24c-.04.08-.08.18-.1.28v.02c.13.08.31-.02.39-.13a211.68 211.68 0 0 0 .27-.35c.05-.05.12-.1.2-.1l.01.02v.05a.42.42 0 0 0-.2.1.47.47 0 0 0-.1.16c-.1.2-.25.37-.48.4-.04 0-.09-.01-.13-.04a8.1 8.1 0 0 1-.7-.58 1.13 1.13 0 0 1-.26-.3 63.45 63.45 0 0 1-.52-1.22c-.04-.1-.1-.19-.1-.3a.67.67 0 0 0-.03-.13 139.2 139.2 0 0 1-.07-.65.3.3 0 0 0-.08-.19.01.01 0 0 0-.02.02l.1.75c.02.1.03.25-.1.26-.3.02-.42-.47-.44-.69a.24.24 0 0 0-.04-.1c-.14-.21-.15-.46-.18-.72a.98.98 0 0 0-.05-.24l-.06-.24a2.17 2.17 0 0 1 .02-.49c.02-.05.03-.05.04 0 .05.21.16.36.35.44.06.03.11.02.17.02a.02.02 0 0 1 .03.03c-.02.05-.06.08-.12.09a.03.03 0 0 0-.03.04.6.6 0 0 1 .01.24.07.07 0 0 0 .07.09c.08 0 .12.05.14.12.05.19.15.35.3.48.3.27.72.25 1.03.04a2.1 2.1 0 0 0 .2-.14.01.01 0 0 1 .02.02.44.44 0 0 1-.09.15c-.16.2-.3.41-.39.64-.01.04 0 .04.03.02a5.53 5.53 0 0 1 .5-.61c.03.04.08.06.13.06.1-.01.2-.01.3.01.1.02.22.02.32-.02.1-.05.2-.1.32-.1.09-.01.15.07.21.12l.1.07c.13.08.26.18.39.3.07.06.08.05.03-.03a3.17 3.17 0 0 0-.42-.4.54.54 0 0 1-.15-.17c-.04-.07-.02-.08.05-.04.4.26.9.29 1.21-.12.1-.13.16-.29.22-.46.02-.06.1-.08.14-.12l.03-.03V8.3a.45.45 0 0 1 0-.26v-.02h-.04l-.03-.01a.48.48 0 0 1-.14-.12c-.03-.04-.02-.05.02-.04.16.04.3.02.45-.07l.14-.11c.03-.02.04-.02.03.02l-.02.07Z" fill="#E4B088"/><path d="M10.41 8.66v-.03l-.02-.02h-.65c-.04 0-.07-.03-.1-.03a6.76 6.76 0 0 1-.45-.08A7.26 7.26 0 0 0 9 8.44a.55.55 0 0 1-.15-.27.74.74 0 0 0-.04-.14c-.03-.05-.05-.1-.02-.16a.4.4 0 0 1 .3-.22 2.26 2.26 0 0 1 .68-.07c.07 0 .14 0 .2.02.16.03.28.05.37.18.04.07.08.14.1.22a11.72 11.72 0 0 1 .02.63l-.05.03ZM8.1 8.44l-.23.08c-.1.04-.17.07-.23.08a8.2 8.2 0 0 1-.42.1h-.19l-.15.02a1.1 1.1 0 0 1-.22.02.62.62 0 0 1-.06-.19v-.37c0-.04.02-.08.04-.12a.2.2 0 0 1 .09-.08 21.35 21.35 0 0 0 .31-.16c.15-.1.34-.2.51-.17.08.02.16.02.24.02.08 0 .15 0 .22.04.12.05.28.15.24.3-.03.18-.08.32-.15.43Z" fill="#2B3F59"/><path d="M8.73 9.13c-.08.07-.2.13-.31.1a.5.5 0 0 0-.29 0 .07.07 0 0 1-.08-.04c-.02-.06-.05-.2 0-.26.13-.14.22-.3.29-.45.05-.12.08-.25.12-.39.01-.04.04-.06.07-.06a.04.04 0 0 1 .05.03l.09.23c.08.26.25.44.41.65.03.04.05.09.05.13 0 .04-.02.06-.06.06-.05 0-.1 0-.17-.02-.05-.02-.12-.02-.17.02Z" fill="#E4B088"/><path d="M11.5 8.24c0 .07-.06.09-.1.13l-.02.03-.02.17c0 .36 0 .66-.21.97-.05.07-.13.16-.21.17a.04.04 0 0 1-.03-.01l-.06-.04c-.02-.02-.03-.01-.03 0a18 18 0 0 0-.01 1c0 .07-.02.13-.04.18a4.79 4.79 0 0 1-.21.33l-.02-.02h-.03v.01a.75.75 0 0 1-.13.18c-.07.07-.12.16-.2.23-.13.14-.27.24-.43.34a23 23 0 0 0-.3.17.03.03 0 0 1-.02-.03c0-.08-.06-.11-.12-.1-.03 0-.05 0-.06-.02-.02-.03-.04-.04-.06-.05.04-.05.04-.08 0-.07v-.05l-.03-.02c-.07 0-.14.05-.2.1a201.92 201.92 0 0 1-.27.35c-.07.1-.25.21-.38.13v-.02c.02-.1.06-.2.1-.28a.7.7 0 0 1 .2-.25c.07-.06.12-.13.2-.19l.02-.02c.02-.05 0-.07-.03-.07.05-.01.07-.03.06-.05v-.02h-.02c-.2 0-.39 0-.58-.03a.72.72 0 0 1-.36-.16c.05 0 .08.02.12.04l.01.01v.01c.05 0 .09.02.13.04h.03l.15-.01c.06-.02.13-.03.2-.03.06 0 .13-.02.19-.05.34-.15.41-.46.33-.8l-.02-.02v-.03c0-.01 0-.03.02-.03l.03.01c.14.14.19.31.14.51-.02.09.02.13.1.14.05 0 .1-.02.17-.07.17-.12.26-.29.36-.46.05-.08.07-.08.05.01l-.05.14c-.02.04 0 .05.03.04.03-.01.05-.05.07-.07.17-.2.25-.42.22-.7a13.93 13.93 0 0 0-.05-.6.08.08 0 0 1 .05-.03.35.35 0 0 0 .2-.1c.1-.11.23-.22.29-.35a1 1 0 0 0 .07-.25.06.06 0 0 1 .03-.05.52.52 0 0 0 .08-.04c.06-.04.09-.12.15-.16a.04.04 0 0 1 .03-.01c.05.01.1 0 .13-.02.07-.03.13-.1.17-.17.01-.01.02-.02.04-.01.02 0 .02.01.02.02a.17.17 0 0 1-.1.12v.02c0 .01 0 .02.02.02.06 0 .16 0 .19-.06Z" fill="#CA946D"/><path d="M3.05 8.9a2 2 0 0 1 .1-.23.05.05 0 0 0-.02-.04h-.01a.2.2 0 0 1-.09-.08.05.05 0 0 1 .04-.08h.08a.07.07 0 0 0 .07-.04 1 1 0 0 0 .05-.22.02.02 0 0 1 .03 0l.02.03.04.16c.03.12.13.07.21.06.11 0 .12.02.03.08l-.14.08a.05.05 0 0 0-.02.03v.04l.1.21a.02.02 0 0 1-.01.02H3.5a23.65 23.65 0 0 1-.2-.16h-.04l-.18.16c-.02.01-.03 0-.03-.01V8.9ZM5.1 8.47h.25a.02.02 0 0 1 0 .03l-.2.14a.02.02 0 0 0-.01.02l.09.24a.02.02 0 0 1-.03.02L5 8.76a.02.02 0 0 0-.03 0l-.2.16a.02.02 0 0 1-.02 0 .02.02 0 0 1 0-.02l.09-.24a.02.02 0 0 0-.01-.02L4.6 8.5a.02.02 0 0 1 .02-.04l.25.01a.02.02 0 0 0 .02-.01l.07-.25a.02.02 0 0 1 .04 0l.06.25a.02.02 0 0 0 .02.01Z" fill="#fff"/><path d="M11.72 8.26h3.24a7.95 7.95 0 0 1 .02 1.08h-3.5c.07-.24.1-.5.08-.77 0-.06.07-.14.11-.18a.22.22 0 0 0 .05-.13Z" fill="#BE3238"/><path d="m11.15 9.13.04-.02a.08.08 0 0 0 .03-.04c.03-.13-.03-.24-.02-.37a6.83 6.83 0 0 0 .06-.32h.01l.01.01a2.1 2.1 0 0 0-.03.57c.01.09-.03.16-.03.25 0 .06-.02.07-.07.02a.58.58 0 0 1-.04-.07v-.02l.04-.01Z"/><path d="M8.1 8.44c-.04.07-.08.11-.11.11-.04 0-.1.03-.18.06-.06.03-.14.05-.24.07l-.21.04c-.22.04-.44.07-.66.08-.02 0-.03-.02-.04-.06.07 0 .15 0 .22-.02l.15-.02h.2a8.2 8.2 0 0 0 .64-.18l.23-.08ZM10.41 8.66l-.02.02h-.31l-.35-.01-.15-.03a5.49 5.49 0 0 1-.48-.09c-.04 0-.07-.04-.1-.11a7.3 7.3 0 0 1 .38.1l.25.04c.04 0 .07.03.11.03h.37a2.01 2.01 0 0 0 .28 0l.02.02v.03Z" fill="#BEBDBC"/><path d="m5.94 8.54.14.42c.06.17.08.3.1.47.01.08.05.11.11.1.02 0 .02 0 .02.02a.33.33 0 0 0-.03.12c0 .06-.02.07-.05.01-.06-.1-.1-.2-.11-.31l-.07-.28c-.05-.17-.13-.34-.15-.52v-.06a.02.02 0 0 1 .02 0 .02.02 0 0 1 .01 0l.01.03Z" fill="#342316"/><path d="m7.99 8.55-.01.07-.14.07a4.47 4.47 0 0 1-1.1.2c-.01.01-.02 0-.01-.02v-.03L6.7 8.8a5.22 5.22 0 0 0 1.29-.25ZM9.1 8.55l.48.09c.06 0 .1.02.15.03h.35l.3.01c.02.04 0 .07-.03.11v-.03l-.02-.01h-.72l-.44-.08-.07-.12Z" fill="#8B221F"/><path d="M7.98 8.62v.05c-.06.08-.14.12-.26.13l-.44.1-.12.03c-.12 0-.24 0-.35.03a.17.17 0 0 1-.07-.07h.01a3.35 3.35 0 0 0 .96-.14 3.4 3.4 0 0 1 .27-.13ZM10.35 8.8c-.01.03-.03.05-.06.05a21.5 21.5 0 0 0-.47-.02.39.39 0 0 0-.11-.02c-.14 0-.27-.02-.41-.05-.08-.01-.12-.04-.13-.1a16.65 16.65 0 0 0 .65.1H10l.32-.01.02.01v.03Z" fill="#BEBDBC"/><path d="M9.3 8.76c.14.03.27.05.4.05.05 0 .09 0 .12.02h.14a21.34 21.34 0 0 1 .33.01c.03.01.05 0 .06-.05.02.03.01.05 0 .06a.74.74 0 0 1-.1.04.05.05 0 0 0-.02.02c-.04.05-.07.09-.14.1a6.04 6.04 0 0 1-.27.02A.5.5 0 0 0 9.7 9l-.2-.07a.63.63 0 0 1-.2-.17ZM6.8 8.96l.36-.03.12-.04c.15-.02.3-.05.44-.1h.07c.01 0 .02 0 0 .02a.4.4 0 0 0-.05.06.27.27 0 0 1-.05.06c-.1.07-.2.13-.32.18-.1.04-.2.03-.29-.02h-.03a.29.29 0 0 1-.24-.13Z" fill="#8B221F"/><path d="M6.4 8.99a.03.03 0 0 1 0 .03.28.28 0 0 0-.07.16c0 .01-.01.02-.03.02-.02-.01-.03-.03-.03-.08.01-.07 0-.14-.04-.21a.03.03 0 0 1 .02-.04h.04c.05.03.08.07.11.12Z"/><path d="M5.76 9.33a.2.2 0 0 1 .1.15c.01.2.07.39.17.56.1.19.28.27.5.25.02 0 .03.02.04.06l-3.41-.01a5.36 5.36 0 0 1-.14-.98c0-.02.03-.03.07-.03a321.3 321.3 0 0 1 2.67 0ZM14.98 9.34a5.46 5.46 0 0 1-.16 1H11l.01-.39a.05.05 0 0 1 .03-.04.66.66 0 0 0 .29-.25c.06-.1.1-.2.15-.32h3.5Z" fill="#fff"/><path d="m9.08 9.73.15.03c.03 0 .04.02.01.04a.06.06 0 0 1-.04 0c-.18-.02-.43-.03-.58.06l-.03.01a.46.46 0 0 0-.23.02 1.8 1.8 0 0 1-.18.07.06.06 0 0 0-.03.02l-.03.02a.25.25 0 0 0-.11.07.16.16 0 0 1-.07.05l-.2.04c-.03 0-.03 0-.01-.02a5.5 5.5 0 0 1 .66-.31c.08-.04.15 0 .24-.04.14-.05.3-.07.45-.06Z" fill="#342316"/><path d="M9.5 9.82h.05c.02 0 .03.02.02.04-.03.07-.08.09-.15.08a2.26 2.26 0 0 0-.62.02l-.4.07c-.1 0-.09-.02.04-.06l.06-.01c.08 0 .15 0 .22-.03l.13-.03c.23.01.45-.01.65-.08Z" fill="#342316"/><path d="M8.23 10.44c.07 0 .13-.03.17-.06.02-.02.02-.03-.01-.03h-.3a.43.43 0 0 1-.18-.08c-.06-.05-.05-.07.02-.06.15.03.32.03.48.03.33 0 .64-.06.94-.22h.02v.02c.01 0 .01 0 0 0a2.87 2.87 0 0 1-.93.45c-.1.03-.26.04-.45.04l-.02-.01v-.02H8l.24-.06Z"/><path d="M14.84 10.32v.03c-.08.37-.2.72-.35 1.06h-3.1a35 35 0 0 1-.33-.42.45.45 0 0 1-.06-.17 2.6 2.6 0 0 1 0-.48 915.53 915.53 0 0 1 3.84-.02ZM3.16 10.34l3.41.01.46 1.06H3.51a6.2 6.2 0 0 1-.35-1.07Z" fill="#BE3238"/><path d="M10.85 11a.2.2 0 0 1-.02.08v-.02l-.02.04v.03c0 .02 0 .03.02.03a.3.3 0 0 1 0 .19.71.71 0 0 0-.03.14c0 .07-.02.13-.04.2 0 .03-.02.05-.04.07a.25.25 0 0 0-.04.06c0 .02-.01.03-.03.03l-.03.02a.4.4 0 0 0-.08.15 4.83 4.83 0 0 1-.38.87.02.02 0 0 1 0-.01c0-.04-.01-.07-.03-.1a2.46 2.46 0 0 1-.09-.24h-.01v.01c0 .2.02.37.07.52v.06c0 .04-.02.04-.05 0a3.88 3.88 0 0 0-.38-.48c-.06-.08-.08-.07-.04.03a7.77 7.77 0 0 0 .15.32l-.02.03c-.03.02-.05 0-.06-.04l-.02-.02-.2-.1a3.45 3.45 0 0 0-.43-.4c.24-.1.49-.21.74-.36.26-.14.46-.32.61-.52a2.45 2.45 0 0 0 .38-.68.03.03 0 0 1 .04.01l.03.08Z" fill="#fff"/><path d="M10.85 11c.03.08.06.16.12.23l.17.2a139.12 139.12 0 0 1 1.1 1.7l-.01.02-.48.24c-.02-.02-.02-.05.01-.08a2.28 2.28 0 0 1 .22-.19v-.02a3.28 3.28 0 0 1-.2-.37 8.95 8.95 0 0 0-.46-.79h-.01v.02l.04.15a7.34 7.34 0 0 1 .1.76l-.02-.02c-.08-.26-.14-.5-.19-.74-.03-.12-.08-.24-.1-.36 0-.05-.02-.1-.05-.15l-.05-.14-.03-.04-.01-.02h-.04l-.01.03-.05.1c.02-.07.04-.22 0-.29 0-.02-.01-.05-.04-.07h-.03c-.02-.01-.03-.02-.03-.04l.01-.03.02-.04v.01a.2.2 0 0 0 .02-.07Z" fill="#204C7F"/><path d="M10.56 11.2c-.18.31-.42.56-.72.76a5.83 5.83 0 0 1-1 .5c-.02-.01-.02-.03-.02-.05.07-.17.14-.3.19-.37.03-.05.09-.1.18-.16.02 0 .04.02.06.05.01.02.03.03.06.02.06-.01.13.02.12.1a.03.03 0 0 0 .01.03.03.03 0 0 0 .04 0l.27-.17c.16-.1.3-.2.43-.34.08-.07.13-.16.2-.23.05-.06.09-.11.12-.18h.01l.02-.01h.01l.02.02v.04Z" fill="#E4B088"/><path d="m10.83 11.16.03.01c.03.02.03.05.05.07.03.07 0 .22-.01.3a48.67 48.67 0 0 1-.22.69 18.95 18.95 0 0 1-.59 1.24l-.61-.6.2.1.02.02c0 .04.03.06.06.04a.04.04 0 0 0 .02-.05l-.15-.3c-.04-.1-.02-.1.04-.03.14.15.27.31.38.49.03.03.04.03.05-.01v-.06a2 2 0 0 1-.07-.53h.01l.01.01.08.23c.02.03.02.06.02.1a.02.02 0 0 0 .01 0l.01.01a4.84 4.84 0 0 0 .36-.87.4.4 0 0 1 .1-.15l.02-.02c.02 0 .03-.01.03-.03a.25.25 0 0 1 .04-.06.18.18 0 0 0 .04-.07 1 1 0 0 0 .04-.2l.03-.14a.3.3 0 0 0 0-.19Z" fill="#C8D8E7"/><path d="M14.5 11.41a6.55 6.55 0 0 1-.6 1.02h-.05c-.8-.2-1.57-.47-2.3-.82-.06-.02-.1-.09-.17-.2h3.11ZM7.03 11.41l.05.14v.03c0 .02 0 .05-.02.07-.16.21-.33.36-.49.45-.15.08-.33.13-.5.17l-.55.14H4.07c-.2-.3-.4-.64-.56-1h3.52Z" fill="#fff"/><path d="m11.04 11.46.05.14c.03.05.04.1.05.15.02.12.07.24.1.36a11.91 11.91 0 0 0 .2.76h.02a7.34 7.34 0 0 0-.15-.92h.04a21.93 21.93 0 0 1 .62 1.19l-.2.17c-.04.03-.04.06-.02.08a.06.06 0 0 0-.01.04l.01.02.04.01h-.01l-.02.02v.04l.01.01c.14.08.26.17.38.27a.05.05 0 0 1 0 .06l-.07.12a.68.68 0 0 1-.16.2v.01l.04.03c-.14.07-.82.5-1.95.7-.13.02-.27.02-.4.05a.03.03 0 0 1-.03 0 .03.03 0 0 1 0-.04c.05-.12.11-.24.15-.37l.13-.34.17-.44c.03-.1.07-.18.12-.26.12-.18.23-.4.34-.67.01-.04.05-.07.06-.1a7.04 7.04 0 0 1 .27-.65c.06-.22.13-.44.22-.64Z" fill="#13335A"/><path d="M8.14 12.66c-.16.11-.3.23-.44.36h-.03l-.02-.04c0-.02.02-.04.03-.05a.3.3 0 0 0 .08-.11c0-.02 0-.02.02-.03l.02-.03c.02-.05.01-.06-.04-.03a3.22 3.22 0 0 0-.28.38.19.19 0 0 1-.06.07H7.4v-.01a2.92 2.92 0 0 0-.04-.55l-.01-.02h-.02a.02.02 0 0 0-.01 0l-.02.25c0 .03-.02.04-.04.04-.01 0-.02 0-.02-.02a2 2 0 0 0-.04-.26c0-.02 0-.04.02-.06l.01-.03c0-.04.02-.07.05-.1v-.04c0-.1.01-.22.04-.37a.58.58 0 0 0-.02-.23.23.23 0 0 0-.05-.1v-.05h.02c.07.1.14.17.2.23a12.3 12.3 0 0 0 .78.69.03.03 0 0 1-.01.03l-.11.08Z" fill="#fff"/><path d="m7.26 11.68.05.1c-.01.1-.05.2-.1.27l-.02.03c-.01.18-.04.35-.01.54a4.85 4.85 0 0 1 .05.98l-.02.15-.04.08a.77.77 0 0 0-.06.31c0 .07 0 .13-.02.2a.89.89 0 0 0 0 .2v.02c.04.04.06.03.07-.02v.13c0 .02.02.04.05.05l-.06-.01-.03-.02-.14-.04a6.1 6.1 0 0 1-1.54-.84 7.14 7.14 0 0 1 .29-.2l-.36-.36c.58-.35.5-.29 1.13-.76a.2.2 0 0 0 .05-.05v-.02h-.03l.33-.25.33-.32c.05-.04.08-.1.08-.17Z" fill="#13335A"/><path d="M7.3 11.78c.03.09.04.17.03.23-.03.15-.04.27-.04.37v.03a.25.25 0 0 0-.05.11v.03a.07.07 0 0 0-.03.06 2 2 0 0 1 .04.26c0 .02 0 .02.02.02s.03-.01.04-.04a2.83 2.83 0 0 0 .03-.26h.01l.02.03v.01a2.92 2.92 0 0 1 .05.55.19.19 0 0 0 .06-.07 3.21 3.21 0 0 1 .28-.38c.05-.03.06-.02.04.03 0 0 0 .02-.02.03-.01 0-.02.01-.02.03a.3.3 0 0 1-.08.1.09.09 0 0 0-.03.06c0 .02 0 .03.02.04h.03c.14-.13.28-.25.44-.36l-.28.27c-.1.09-.16.16-.22.23a8.19 8.19 0 0 0-.43.59c0-.05 0-.1.02-.15l.01-.14c.01-.28-.02-.55-.06-.84-.03-.19 0-.36.01-.54 0 0 0-.02.02-.03.05-.08.09-.17.1-.27Z" fill="#C8D8E7"/><path d="M13.68 12.74a11.2 11.2 0 0 0-.73-.26 4.45 4.45 0 0 1-.68-.24 1.2 1.2 0 0 0-.23-.07 7.14 7.14 0 0 0-.2-.07.36.36 0 0 1-.12-.14c-.02-.05 0-.06.04-.03l.18.08c.57.24 1.13.44 1.7.59.04.01.08 0 .11.02.01 0 .02.01.01.03a.23.23 0 0 1-.08.1Z" fill="#204C7F"/><path d="M11.83 12.1a7.68 7.68 0 0 1 .2.07c.11.02.19.04.24.07.22.1.45.18.68.24l.73.26-.1.14c-.24.28-.5.54-.8.78-.02.02-.04.02-.06 0-.13-.1-.27-.2-.42-.28-.09-.06-.08-.1.02-.12l.17-.03h.01a.03.03 0 0 0 .02-.03v-.02a216.7 216.7 0 0 1-.69-1.09ZM6.24 12.49l-.27.16c-.07.04-.13.1-.2.15a9.33 9.33 0 0 0-.54.39l.25.32c.02.03.02.06-.02.08l-.16.09h-.03l-.04-.01c-.24-.2-.46-.4-.65-.62l-.11-.1a.03.03 0 0 1 0-.03.03.03 0 0 1 .01-.02l1.24-.33a5.62 5.62 0 0 0 .55-.13c0 .02-.01.04-.03.05Z" fill="#13335A"/><path d="M8.44 13.05a.3.3 0 0 0 0 .13v.03c-.03.02-.05.02-.07 0a1.44 1.44 0 0 0-.37-.26.03.03 0 0 1 0-.04l.21-.24c.05-.05.1-.09.16-.11.13-.05.3-.1.44-.05l.2.07c.16.09.3.2.4.33.04.03.05.07.02.11a6.42 6.42 0 0 1-.45.37c-.1.07-.2.04-.27-.06a.06.06 0 0 1 0-.07.98.98 0 0 1 .3-.36v-.01h-.02c-.1.04-.16.09-.19.13l-.14.18c-.05.04-.1.05-.15.01a.03.03 0 0 1-.01-.02c0-.05-.01-.1-.03-.14-.02-.04-.03-.04-.03 0Z" fill="#BE3238"/><path d="M7.36 14.77h.05c.01 0 .02-.01.02-.03 0-.15.08-.23.14-.35a4.92 4.92 0 0 1 .28-.51v-.02h-.02l-.35.46a.05.05 0 0 1-.04.02h-.01a.01.01 0 0 1-.02-.02l.5-.7.14-.2a.05.05 0 0 0-.01-.07l-.11-.08h-.04a.2.2 0 0 0-.08.08 1.68 1.68 0 0 1-.15.25h-.01a.14.14 0 0 0-.1.07 10.12 10.12 0 0 0-.23.34.34.34 0 0 0-.05.05.2.2 0 0 0-.04.1c0 .06-.02.12-.04.17a3.21 3.21 0 0 1 .08-.53l.59-.78c.01-.03.03-.03.05 0a.9.9 0 0 0 .43.23.04.04 0 0 1 0 .04c-.15.3-.3.6-.47.87a4.44 4.44 0 0 0-.36.65.3.3 0 0 1-.15-.04ZM9.77 14.18c0-.04 0-.07-.02-.09l-.01-.03c-.03-.1 0-.2.04-.3.04-.1.04-.2-.02-.29a.96.96 0 0 0-.13-.16.05.05 0 0 0-.06 0 .42.42 0 0 0-.17.33l-.02.4c0 .06-.02.07-.05 0l-.06-.17c-.04-.1-.05-.09-.03 0l.05.53c0 .04-.02.07-.04.09l-.02.02-.02.44.01.03h.1l-.11.01a.03.03 0 0 1-.03-.01v-.01l-.05-.5a3.08 3.08 0 0 0-.21-.87v-.02c.18-.18.4-.32.61-.45.03-.02.06-.02.1.01l.39.36v.04l-.25.64Z" fill="#C8D8E7"/><path d="m7.36 14.77-.15-.05c-.03-.01-.05-.03-.05-.05v-.13l.03-.2a.67.67 0 0 0 .04-.18.2.2 0 0 1 .04-.1.33.33 0 0 1 .05-.05 10.11 10.11 0 0 1 .23-.34.14.14 0 0 1 .1-.07.04.04 0 0 0 .02-.01c.05-.08.1-.15.14-.24a.2.2 0 0 1 .08-.08h.04l.1.08a.05.05 0 0 1 .02.07l-.13.2a20.24 20.24 0 0 0-.5.72h.02a.05.05 0 0 0 .04-.02l.35-.46h.02v.05c-.1.15-.2.31-.28.48-.06.12-.15.2-.14.35 0 .02 0 .02-.02.02l-.05.01ZM9.77 14.18l-.28.77a.03.03 0 0 1-.02.02.38.38 0 0 1-.15.01h-.1s-.02-.01-.01-.03l.02-.44s0-.02.02-.02c.02-.02.04-.05.04-.09l-.05-.53c-.02-.09 0-.1.03 0l.06.17c.03.07.04.06.05 0l.02-.4c0-.14.06-.24.17-.33a.05.05 0 0 1 .06 0c.05.06.1.1.13.16.06.08.06.2.02.29-.04.1-.07.2-.04.3v.03c.02.02.03.05.03.09Z" fill="#fff"/><path d="M8.19 14.1h.01a7.28 7.28 0 0 0 .3-.68c.03-.04.04-.03.05.01.01.1-.01.23-.01.34v.6c0 .2-.02.39-.05.58l-.02.02h-.02a9.43 9.43 0 0 1-.76-.13l.65-1.39h.02a.02.02 0 0 1 .02.01v.01l-.2.62.01.01Z" fill="#B02D33"/><path d="m11.79 13.46.67.21c.04.01.05.04.03.08l-.15.21a.2.2 0 0 1-.06.06l-.32.2-.04-.03v-.02a.68.68 0 0 0 .16-.19l.08-.12a.05.05 0 0 0-.01-.06 2.5 2.5 0 0 0-.4-.28v-.02a.04.04 0 0 1 .03-.04Z" fill="#204C7F"/><path d="M8.68 14.48a11.08 11.08 0 0 0 .1-.88h.04c.05.06.05.1.07.16A3.94 3.94 0 0 1 9.08 15h-.02c-.16 0-.32 0-.48-.02-.01 0-.02-.01-.01-.03.04-.15.08-.3.1-.47Z" fill="#B02D33"/><path d="m7.87 7.9-.98.06.04.42.94-.1v-.39ZM10.18 7.85H9.17l.04.39h.97v-.4Z" fill="#BEBDBC"/><path d="m9.96 4.83-2.92.14-.01-.26 2.92-.13.01.25Zm-.2.44-2.56.15-.01-.25 2.56-.15.02.25Z" fill="#fff" fill-opacity=".7"/></svg>